<?xml version="1.0" encoding="utf-8"?>
<!-- Generator: Adobe Illustrator 24.3.0, SVG Export Plug-In . SVG Version: 6.00 Build 0)  -->
<svg version="1.1" id="Layer_1" xmlns="http://www.w3.org/2000/svg" xmlns:xlink="http://www.w3.org/1999/xlink" x="0px" y="0px"
	 viewBox="0 0 198.76 139.66" style="enable-background:new 0 0 198.76 139.66;" xml:space="preserve">
<style type="text/css">
	.st0{fill:#3F689F;}
	.st1{fill:url(#SVGID_1_);}
	.st2{fill:url(#SVGID_2_);}
	.st3{fill:url(#SVGID_3_);}
	.st4{fill:url(#SVGID_4_);}
	.st5{fill:#FFFFFF;}
	.st6{fill:#212222;}
	.st7{fill:none;}
</style>
<g>
	<g>
		<path class="st0" d="M23.33,88.67V39.72h9.88v21.74l19.97-21.74h13.29L48.04,58.79l19.43,29.88H54.68L41.22,65.7l-8.01,8.18v14.79
			H23.33z"/>
		<path class="st0" d="M124.37,88.67V40.12h9.88v40.3h24.57v8.25H124.37z"/>
		<path class="st0" d="M165.57,88.67V39.72h9.88v48.95H165.57z"/>
	</g>
	<g>
		<linearGradient id="SVGID_1_" gradientUnits="userSpaceOnUse" x1="70.5825" y1="55.3198" x2="107.4365" y2="67.5541">
			<stop  offset="0.0401" style="stop-color:#223264"/>
			<stop  offset="0.7971" style="stop-color:#6FA2D3"/>
		</linearGradient>
		<path class="st1" d="M107.42,66.97c0.02-0.07,0.02-0.15,0.04-0.22c-0.14,1.21-0.4,2.38-0.75,3.51c-0.08,0.24-0.16,0.48-0.24,0.71
			c-0.08,0.24-0.17,0.46-0.26,0.69c-0.1,0.24-0.2,0.47-0.3,0.71c-0.09,0.19-0.18,0.39-0.28,0.58c-0.01,0.01-0.01,0.02-0.01,0.04
			c-0.1,0.19-0.2,0.38-0.3,0.57c-0.1,0.19-0.2,0.37-0.31,0.55c-0.44,0.77-0.94,1.51-1.48,2.2c-2.81,3.61-6.85,6.18-11.46,7.12
			c-1.62,0.33-3.31,0.46-5.04,0.36c-4.08-0.24-7.8-1.72-10.8-4.06c-4.6-3.58-7.52-9.17-7.52-15.36c0-0.21,0.01-0.43,0.01-0.64
			c0.01-0.16,0.01-0.33,0.02-0.5s0.02-0.34,0.04-0.5c0.02-0.2,0.04-0.4,0.05-0.6c0.02-0.2,0.04-0.39,0.07-0.59
			c0.02-0.2,0.05-0.39,0.08-0.58c0.02-0.14,0.04-0.27,0.06-0.4c0.02-0.16,0.05-0.31,0.08-0.46c0.05-0.29,0.11-0.58,0.18-0.86
			c0.02-0.11,0.05-0.22,0.08-0.33c0.05-0.23,0.11-0.45,0.17-0.67c0.02-0.1,0.05-0.2,0.08-0.31c0.07-0.25,0.14-0.49,0.22-0.74
			c0.08-0.27,0.17-0.54,0.27-0.8c0.05-0.16,0.11-0.31,0.17-0.47c0.07-0.19,0.14-0.38,0.22-0.57c0.07-0.16,0.14-0.33,0.21-0.49
			c0.08-0.19,0.17-0.39,0.26-0.58c0.06-0.12,0.12-0.25,0.18-0.37c0.1-0.19,0.19-0.39,0.3-0.58c0.07-0.14,0.14-0.27,0.22-0.4
			c0.22-0.41,0.45-0.81,0.7-1.2c0.37-0.6,0.77-1.17,1.18-1.73c0.11-0.15,0.23-0.3,0.34-0.45c0.11-0.14,0.23-0.29,0.35-0.43
			c0.12-0.14,0.24-0.29,0.36-0.43c0.12-0.14,0.25-0.28,0.37-0.42c0.08-0.09,0.16-0.17,0.25-0.27c0.33-0.36,0.68-0.71,1.04-1.05
			c0.1-0.09,0.19-0.18,0.29-0.27c0.14-0.13,0.28-0.25,0.42-0.37c0.14-0.13,0.28-0.25,0.42-0.37c0.23-0.19,0.46-0.38,0.69-0.56
			c0.2-0.16,0.42-0.32,0.63-0.48c0.03-0.02,0.07-0.05,0.1-0.07c0.27-0.19,0.54-0.38,0.81-0.57c0.01-0.01,0.02-0.01,0.03-0.02
			c0.28-0.18,0.55-0.36,0.84-0.53c0.02-0.02,0.05-0.04,0.08-0.05c0.27-0.16,0.53-0.31,0.8-0.45c0.59-0.33,1.19-0.63,1.81-0.9
			c0.92-0.41,1.87-0.77,2.84-1.06c0.33-0.1,0.65-0.19,0.98-0.28c0.65-0.17,1.31-0.31,1.97-0.43c0.02-0.01,0.05-0.01,0.07-0.01
			c0.33-0.05,0.65-0.1,0.98-0.14c0.32-0.04,0.64-0.08,0.96-0.1c0.05-0.01,0.1-0.01,0.14-0.01c0.27-0.02,0.55-0.04,0.82-0.05
			c0.05-0.01,0.1-0.01,0.16-0.01c0.34-0.02,0.68-0.02,1.02-0.02c0.31,0,0.63,0.01,0.95,0.02c0.01,0,0.01,0,0.01,0
			c0.16,0.01,0.33,0.01,0.5,0.02s0.34,0.02,0.5,0.04c0.11,0.01,0.22,0.02,0.33,0.03c0.19,0.02,0.39,0.04,0.58,0.06
			c0.18,0.02,0.37,0.04,0.55,0.07c0.2,0.03,0.4,0.06,0.6,0.1c0.19,0.03,0.39,0.07,0.58,0.1c-6.35-1.18-12.57,0.89-16.95,5.04
			c-2.75,2.62-4.77,6.06-5.62,10.07c-0.36,1.7-0.48,3.39-0.4,5.04c0.25,4.7,2.19,9.08,5.34,12.4c2.26,2.38,5.14,4.19,8.46,5.18
			c0.07,0.02,0.14,0.04,0.22,0.07c0.03,0.01,0.06,0.02,0.09,0.03c0.09,0.03,0.18,0.06,0.27,0.08c0.1,0.04,0.21,0.07,0.33,0.09
			c0.11,0.03,0.22,0.06,0.33,0.08c0.13,0.04,0.26,0.06,0.39,0.09c0.11,0.02,0.21,0.04,0.32,0.06c0.12,0.02,0.24,0.05,0.36,0.07
			c0.1,0.02,0.2,0.03,0.31,0.04c0.05,0.01,0.1,0.01,0.16,0.02l0.04,0.01c0.01,0,0.02,0,0.04,0.01c0.08,0.01,0.17,0.02,0.27,0.03
			c0.05,0.01,0.1,0.01,0.14,0.01c0.17,0.02,0.33,0.04,0.5,0.04c0.08,0.01,0.17,0.01,0.25,0.01c0.16,0.01,0.33,0.02,0.48,0.01
			c0.09,0.01,0.18,0.01,0.27,0c0.38,0,0.75-0.02,1.13-0.05c0.22-0.02,0.43-0.04,0.64-0.07c0.22-0.02,0.43-0.06,0.63-0.1
			c0.21-0.03,0.42-0.07,0.63-0.13c0.19-0.04,0.39-0.08,0.58-0.14c0.02-0.01,0.04-0.01,0.07-0.02c0.16-0.04,0.31-0.09,0.46-0.14
			c0.61-0.19,1.2-0.42,1.77-0.69c0.13-0.06,0.25-0.12,0.38-0.19c0.31-0.15,0.61-0.31,0.91-0.49c0.13-0.07,0.25-0.15,0.38-0.24
			c0.37-0.24,0.74-0.49,1.08-0.75c0.16-0.13,0.33-0.25,0.48-0.39c0.6-0.5,1.15-1.05,1.66-1.65c0.11-0.13,0.22-0.26,0.33-0.4
			c0.01-0.02,0.02-0.03,0.04-0.05c0.11-0.14,0.22-0.29,0.33-0.44c0.11-0.15,0.22-0.31,0.33-0.46c0.11-0.16,0.21-0.32,0.31-0.48
			c0.61-0.98,1.1-2.04,1.45-3.16c0.03-0.07,0.05-0.15,0.07-0.23c0.02-0.07,0.05-0.15,0.07-0.23c0.09-0.31,0.17-0.62,0.24-0.94
			c0.02-0.1,0.04-0.19,0.05-0.28C107.37,67.25,107.4,67.11,107.42,66.97z"/>
		<linearGradient id="SVGID_2_" gradientUnits="userSpaceOnUse" x1="75.346" y1="80.6732" x2="110.6605" y2="61.9143">
			<stop  offset="0.0401" style="stop-color:#223264"/>
			<stop  offset="0.7971" style="stop-color:#6FA2D3"/>
		</linearGradient>
		<path class="st2" d="M111.56,68.54c0.09,1.65-0.04,3.35-0.39,5.04c-0.85,4-2.87,7.46-5.63,10.08c-4.38,4.15-10.6,6.21-16.94,5.03
			c-0.16-0.03-0.33-0.06-0.49-0.1c-0.16-0.03-0.33-0.07-0.49-0.11c-0.34-0.08-0.68-0.16-1.01-0.25c-0.01,0-0.02-0.01-0.04-0.01
			c-0.34-0.1-0.69-0.2-1.02-0.31c-0.01-0.01-0.03-0.01-0.04-0.01c-0.27-0.09-0.53-0.19-0.8-0.28c-0.1-0.04-0.19-0.07-0.28-0.11
			c-0.24-0.09-0.48-0.19-0.72-0.29c-0.11-0.04-0.22-0.09-0.34-0.14c-0.23-0.1-0.46-0.2-0.69-0.31c-0.05-0.02-0.1-0.04-0.14-0.07
			c-0.21-0.1-0.42-0.2-0.62-0.31c-0.13-0.07-0.26-0.13-0.39-0.2c-0.24-0.12-0.46-0.25-0.69-0.38c-0.01-0.01-0.03-0.02-0.05-0.03
			c-0.23-0.13-0.45-0.27-0.66-0.4c-0.08-0.05-0.16-0.1-0.25-0.16c-0.16-0.1-0.31-0.2-0.46-0.31c-0.16-0.1-0.31-0.21-0.46-0.32
			c-0.16-0.11-0.31-0.23-0.46-0.34c-0.14-0.11-0.29-0.22-0.43-0.33s-0.29-0.23-0.43-0.35s-0.29-0.24-0.43-0.36
			c-0.6-0.52-1.18-1.07-1.73-1.65c-0.1-0.1-0.19-0.2-0.28-0.3c-0.13-0.14-0.25-0.28-0.37-0.42c-0.13-0.14-0.25-0.28-0.37-0.42
			c-0.13-0.15-0.25-0.3-0.37-0.45c-0.1-0.13-0.2-0.25-0.3-0.39c-0.16-0.2-0.31-0.4-0.45-0.6c-0.17-0.24-0.34-0.48-0.51-0.73
			c-0.04-0.07-0.08-0.13-0.13-0.19c-0.14-0.22-0.29-0.45-0.42-0.68c-0.2-0.32-0.39-0.64-0.56-0.96c-0.16-0.29-0.31-0.58-0.46-0.88
			c-0.13-0.26-0.25-0.52-0.38-0.79c-0.16-0.35-0.31-0.7-0.45-1.05c-0.13-0.31-0.24-0.63-0.36-0.95c-0.07-0.21-0.14-0.42-0.21-0.64
			c-0.04-0.12-0.08-0.25-0.11-0.37c-0.09-0.3-0.17-0.59-0.25-0.89c-0.14-0.56-0.27-1.13-0.38-1.69c-0.06-0.32-0.11-0.63-0.16-0.96
			c-0.03-0.19-0.05-0.38-0.08-0.57c-0.02-0.2-0.04-0.39-0.06-0.58c-0.02-0.2-0.04-0.39-0.05-0.58c-0.02-0.2-0.03-0.39-0.04-0.59
			c-0.01-0.16-0.02-0.33-0.02-0.5c-0.01-0.07-0.01-0.14-0.01-0.22c-0.01-0.26-0.01-0.52,0-0.78c0,6.19,2.92,11.78,7.52,15.36
			c3,2.33,6.72,3.82,10.8,4.06c1.74,0.1,3.43-0.03,5.04-0.36c4.6-0.94,8.65-3.51,11.46-7.12c0.54-0.69,1.04-1.43,1.48-2.2
			c0.11-0.18,0.21-0.37,0.31-0.55c0.1-0.19,0.2-0.37,0.3-0.57c0-0.01,0.01-0.02,0.01-0.04c0.1-0.19,0.19-0.39,0.28-0.58
			c0.1-0.24,0.2-0.47,0.3-0.71c0.1-0.23,0.18-0.45,0.26-0.69c0.09-0.24,0.17-0.47,0.24-0.71c0.42-1.3,0.7-2.66,0.83-4.07
			c0.01-0.06,0.01-0.12,0.01-0.18c0.02-0.17,0.03-0.34,0.04-0.51v-0.01c0.01-0.17,0.02-0.34,0.02-0.5c0.01-0.17,0.01-0.34,0.01-0.51
			c0-0.2-0.01-0.41-0.02-0.61v-0.01c-0.01-0.1-0.01-0.2-0.02-0.3c-0.02-0.33-0.06-0.66-0.11-0.99c-0.04-0.28-0.08-0.56-0.14-0.84
			c-0.04-0.17-0.07-0.34-0.12-0.51c0-0.01,0-0.01,0-0.02c-0.01-0.01-0.01-0.02-0.01-0.04c-0.04-0.13-0.07-0.26-0.11-0.39
			c-0.01-0.06-0.03-0.11-0.05-0.17c-0.04-0.13-0.08-0.27-0.13-0.4c-0.02-0.07-0.05-0.14-0.07-0.22c-0.13-0.39-0.28-0.77-0.44-1.13
			c-0.02-0.05-0.04-0.09-0.06-0.13c-0.06-0.14-0.12-0.27-0.19-0.4c-0.13-0.27-0.26-0.51-0.4-0.77s-0.3-0.51-0.46-0.76
			c-0.04-0.08-0.1-0.15-0.14-0.23c-0.01-0.02-0.03-0.04-0.05-0.07c-0.01-0.01-0.02-0.03-0.03-0.04c-0.21-0.31-0.44-0.61-0.68-0.91
			c-0.27-0.33-0.55-0.65-0.86-0.96c-0.19-0.2-0.39-0.4-0.6-0.58c-0.15-0.14-0.31-0.28-0.47-0.42c-0.11-0.1-0.22-0.19-0.34-0.27
			c-0.12-0.1-0.25-0.19-0.37-0.29c-0.09-0.06-0.17-0.13-0.27-0.19c-0.16-0.11-0.33-0.22-0.49-0.33c-0.12-0.07-0.24-0.14-0.35-0.22
			c-0.04-0.02-0.08-0.05-0.12-0.07c-0.17-0.1-0.35-0.2-0.53-0.3c-0.19-0.1-0.38-0.2-0.57-0.29c-0.19-0.09-0.38-0.18-0.57-0.26
			c-0.19-0.08-0.38-0.16-0.57-0.24c-0.28-0.11-0.58-0.2-0.87-0.29c1.42,0.39,2.76,0.93,4.01,1.61c0.22,0.12,0.44,0.24,0.65,0.37
			c0.22,0.13,0.43,0.26,0.64,0.39c0.18,0.12,0.36,0.24,0.54,0.36c0.01,0.01,0.02,0.01,0.03,0.02c0.17,0.12,0.35,0.25,0.52,0.38
			c0.17,0.12,0.34,0.25,0.5,0.39c0.7,0.55,1.36,1.15,1.96,1.79C109.37,59.47,111.32,63.85,111.56,68.54z"/>
		<linearGradient id="SVGID_3_" gradientUnits="userSpaceOnUse" x1="80.1313" y1="63.2594" x2="117.9668" y2="73.2406">
			<stop  offset="0" style="stop-color:#6FA2D3"/>
			<stop  offset="1" style="stop-color:#223264"/>
		</linearGradient>
		<path class="st3" d="M117.63,64.93c0,0.22-0.01,0.43-0.01,0.64c-0.01,0.16-0.01,0.33-0.02,0.5c-0.01,0.17-0.02,0.34-0.04,0.5
			c-0.02,0.2-0.04,0.4-0.05,0.6s-0.04,0.39-0.07,0.59c-0.04,0.3-0.08,0.59-0.13,0.88c-0.08,0.49-0.17,0.96-0.28,1.44
			c-0.02,0.11-0.05,0.22-0.08,0.33c-0.04,0.2-0.09,0.39-0.14,0.58c-0.02,0.07-0.04,0.14-0.06,0.22c-0.02,0.09-0.05,0.19-0.08,0.28
			c-0.05,0.18-0.1,0.36-0.16,0.54c-0.03,0.1-0.06,0.19-0.09,0.29c-0.07,0.2-0.14,0.41-0.21,0.61c-0.05,0.16-0.11,0.31-0.17,0.47
			c-0.07,0.17-0.14,0.36-0.21,0.53s-0.14,0.35-0.22,0.52c-0.07,0.17-0.15,0.35-0.23,0.52c-0.08,0.17-0.16,0.34-0.25,0.51
			c-0.08,0.17-0.17,0.34-0.26,0.51c-0.07,0.13-0.14,0.27-0.22,0.4c-0.19,0.36-0.4,0.72-0.61,1.07c-0.4,0.64-0.82,1.26-1.27,1.86
			c-0.11,0.15-0.23,0.3-0.34,0.45c-0.11,0.14-0.23,0.29-0.35,0.43c-0.12,0.14-0.24,0.29-0.36,0.43c-0.12,0.14-0.25,0.28-0.37,0.42
			c-0.08,0.08-0.16,0.17-0.25,0.27c-0.33,0.36-0.68,0.71-1.04,1.05c-0.1,0.09-0.19,0.18-0.29,0.27c-0.14,0.13-0.28,0.25-0.42,0.37
			c-0.14,0.13-0.28,0.25-0.42,0.37c-0.22,0.19-0.45,0.37-0.68,0.55c-0.5,0.39-1.02,0.77-1.56,1.12c-0.02,0.01-0.03,0.02-0.05,0.03
			c-0.27,0.17-0.54,0.35-0.83,0.52c-0.28,0.17-0.58,0.34-0.87,0.5c-0.59,0.33-1.19,0.63-1.81,0.9c-0.93,0.41-1.87,0.77-2.84,1.06
			c-0.96,0.3-1.95,0.53-2.95,0.71c-0.02,0.01-0.05,0.01-0.07,0.01c-0.33,0.05-0.65,0.1-0.98,0.14c-0.33,0.04-0.66,0.08-0.98,0.1
			c-0.04,0.01-0.07,0.01-0.1,0.01c-0.33,0.02-0.65,0.05-0.98,0.06c-0.01,0-0.01,0-0.01,0c-0.34,0.02-0.69,0.02-1.03,0.02h-0.01
			c-0.32,0-0.63-0.01-0.95-0.02c-0.13-0.01-0.27-0.01-0.41-0.02c-0.03,0-0.06-0.01-0.09-0.01c-0.17-0.01-0.34-0.02-0.5-0.04
			c-0.31-0.02-0.61-0.05-0.92-0.09c-0.16-0.02-0.33-0.04-0.5-0.06c-0.22-0.03-0.43-0.06-0.65-0.1c-0.19-0.03-0.39-0.07-0.58-0.1
			c6.34,1.18,12.57-0.88,16.94-5.03c2.76-2.62,4.78-6.08,5.63-10.08c0.36-1.7,0.48-3.39,0.39-5.04c-0.24-4.69-2.18-9.07-5.33-12.39
			c-0.6-0.64-1.26-1.24-1.96-1.79c-0.16-0.13-0.33-0.27-0.5-0.39c-0.17-0.13-0.34-0.26-0.52-0.38c-0.01-0.01-0.02-0.01-0.03-0.02
			c-0.18-0.13-0.36-0.25-0.54-0.36c-0.21-0.13-0.42-0.27-0.64-0.39c-0.21-0.13-0.43-0.25-0.65-0.37c-1.39-0.77-2.91-1.36-4.5-1.75
			c-0.24-0.06-0.46-0.11-0.71-0.17c-0.01-0.01-0.03-0.01-0.04-0.01c-0.08-0.02-0.16-0.04-0.24-0.04c-0.1-0.02-0.19-0.04-0.29-0.05
			c-0.14-0.02-0.28-0.05-0.42-0.07c-0.04-0.01-0.07-0.01-0.11-0.02c-0.02,0-0.04-0.01-0.07-0.01c-0.16-0.02-0.33-0.04-0.49-0.06
			c-0.2-0.02-0.4-0.04-0.59-0.05c-0.23-0.01-0.47-0.02-0.71-0.02c-0.1,0-0.2,0-0.31,0c-0.36,0.01-0.71,0.02-1.06,0.06
			c-0.02,0-0.04,0-0.05,0.01c-0.02,0-0.03,0-0.05,0.01c-0.01,0-0.01,0-0.02,0c-0.02,0-0.04,0.01-0.07,0.01
			c-0.25,0.02-0.51,0.05-0.76,0.1c-0.01,0-0.01,0-0.02,0s-0.02,0-0.02,0.01c-0.1,0.01-0.2,0.03-0.3,0.05
			c-0.02,0.01-0.04,0.01-0.05,0.01c-0.03,0-0.05,0.01-0.08,0.01c-0.02,0.01-0.04,0.01-0.06,0.01c-0.03,0.01-0.07,0.02-0.1,0.02
			c-0.02,0.01-0.03,0.01-0.05,0.01c-0.16,0.03-0.33,0.07-0.48,0.11c-0.1,0.02-0.19,0.04-0.28,0.07c-0.02,0.01-0.05,0.01-0.08,0.02
			c-0.05,0.01-0.1,0.02-0.14,0.04c-0.02,0.01-0.04,0.01-0.05,0.02c-0.04,0.01-0.07,0.01-0.1,0.03c-0.05,0.01-0.1,0.02-0.15,0.04
			c-0.05,0.01-0.11,0.03-0.16,0.05c-0.04,0.01-0.09,0.03-0.13,0.04c-0.03,0.01-0.06,0.02-0.08,0.03c-0.03,0.01-0.06,0.02-0.08,0.03
			c-0.01,0-0.01,0-0.01,0c-0.12,0.04-0.24,0.08-0.35,0.13c-0.05,0.02-0.09,0.04-0.14,0.05c-0.04,0.01-0.08,0.02-0.11,0.04
			c-0.04,0.01-0.07,0.03-0.11,0.04c-0.1,0.04-0.2,0.08-0.29,0.12c-0.07,0.02-0.13,0.05-0.18,0.08c-0.01,0.01-0.01,0.01-0.01,0.01
			c-0.03,0.01-0.07,0.03-0.1,0.04c-0.02,0.01-0.05,0.02-0.08,0.04c-0.05,0.02-0.1,0.05-0.16,0.07c-0.02,0.01-0.05,0.02-0.08,0.04
			c-0.02,0.01-0.04,0.02-0.05,0.03c-0.04,0.02-0.07,0.03-0.1,0.05c-0.01,0.01-0.02,0.01-0.03,0.02c-0.03,0.01-0.06,0.03-0.08,0.04
			c-0.08,0.03-0.15,0.07-0.22,0.11c-0.06,0.03-0.12,0.06-0.18,0.1c-0.04,0.02-0.07,0.04-0.1,0.05c-0.04,0.02-0.09,0.05-0.13,0.07
			c-0.05,0.03-0.1,0.06-0.15,0.09c-0.07,0.04-0.13,0.08-0.19,0.12c-0.01,0.01-0.02,0.01-0.04,0.02c-0.06,0.04-0.12,0.07-0.17,0.11
			c-0.08,0.05-0.17,0.1-0.26,0.16c-0.07,0.04-0.13,0.08-0.19,0.13c-0.04,0.02-0.07,0.04-0.1,0.07c-0.11,0.07-0.22,0.14-0.32,0.23
			c-0.01,0-0.04,0.01-0.05,0.02c-0.08,0.07-0.17,0.13-0.26,0.2c-0.26,0.2-0.51,0.41-0.75,0.63c-0.05,0.04-0.1,0.09-0.15,0.14
			c-0.02,0.02-0.04,0.04-0.07,0.06c-0.12,0.1-0.23,0.22-0.34,0.33l-0.01,0.01c-0.05,0.05-0.1,0.1-0.15,0.15
			c-0.02,0.02-0.05,0.05-0.08,0.07c-0.05,0.05-0.09,0.1-0.13,0.15c-0.02,0.02-0.04,0.04-0.06,0.06c-0.04,0.04-0.07,0.08-0.11,0.12
			c-0.01,0.01-0.01,0.01-0.01,0.01c-0.07,0.07-0.13,0.14-0.19,0.21c-0.02,0.02-0.05,0.05-0.07,0.08c-0.04,0.04-0.07,0.08-0.1,0.12
			v0.01c-0.05,0.06-0.1,0.11-0.14,0.18c-0.04,0.05-0.09,0.11-0.13,0.17c-0.07,0.07-0.13,0.15-0.18,0.24
			c-0.03,0.04-0.06,0.08-0.09,0.12c-0.05,0.06-0.09,0.13-0.14,0.19c-0.01,0.01-0.01,0.01-0.01,0.02c-0.06,0.08-0.12,0.16-0.18,0.25
			c-0.05,0.08-0.1,0.16-0.16,0.24c-0.02,0.02-0.04,0.05-0.05,0.08c-0.01,0.01-0.02,0.02-0.02,0.04c-0.02,0.03-0.04,0.05-0.06,0.09
			c0,0-0.01,0-0.01,0.01c0,0.01-0.01,0.02-0.01,0.02s-0.01,0.02-0.02,0.02c-0.04,0.07-0.08,0.14-0.13,0.22
			c-0.01,0.01-0.01,0.01-0.01,0.02c-0.06,0.1-0.12,0.21-0.18,0.31c0,0.01-0.01,0.01-0.01,0.02c-0.05,0.1-0.11,0.2-0.16,0.3
			c-0.02,0.02-0.03,0.05-0.04,0.08c-0.01,0.01-0.01,0.02-0.02,0.03c-0.02,0.04-0.05,0.09-0.07,0.13c-0.02,0.07-0.06,0.13-0.08,0.19
			c-0.01,0.02-0.02,0.04-0.03,0.07c-0.04,0.08-0.07,0.15-0.11,0.23c-0.02,0.04-0.04,0.08-0.06,0.13c-0.06,0.14-0.12,0.28-0.17,0.42
			c-0.01,0.03-0.03,0.06-0.04,0.1c-0.02,0.05-0.04,0.1-0.05,0.16c-0.01,0.03-0.03,0.06-0.04,0.1c-0.04,0.09-0.07,0.19-0.11,0.29
			c-0.02,0.07-0.05,0.14-0.08,0.22c-0.01,0.02-0.02,0.05-0.02,0.07c-0.01,0.01-0.01,0.02-0.01,0.04c-0.03,0.09-0.06,0.19-0.08,0.28
			c-0.02,0.04-0.02,0.07-0.04,0.11c-0.01,0.02-0.01,0.05-0.02,0.08c-0.01,0.02-0.01,0.05-0.02,0.07c-0.05,0.16-0.09,0.32-0.13,0.48
			c-0.02,0.06-0.03,0.12-0.05,0.19c-0.01,0.01-0.01,0.02-0.01,0.04c0,0.01-0.01,0.02-0.01,0.04c-0.01,0.03-0.01,0.06-0.02,0.09
			c-0.01,0.02-0.01,0.04-0.01,0.05c-0.01,0.04-0.01,0.07-0.02,0.11C79,61.79,79,61.81,79,61.82c-0.02,0.1-0.05,0.22-0.07,0.33
			c0,0.02-0.01,0.03-0.01,0.05c-0.01,0.05-0.02,0.1-0.03,0.14c0.46-3.51,1.84-6.69,3.9-9.33c2.81-3.61,6.85-6.19,11.46-7.14
			c1.62-0.33,3.31-0.46,5.04-0.36c4.08,0.24,7.79,1.72,10.79,4.04C114.7,53.14,117.63,58.73,117.63,64.93z"/>
		<linearGradient id="SVGID_4_" gradientUnits="userSpaceOnUse" x1="97.0056" y1="56.1398" x2="61.7712" y2="75.5753">
			<stop  offset="7.680121e-03" style="stop-color:#223264"/>
			<stop  offset="0.8463" style="stop-color:#6FA2D3"/>
		</linearGradient>
		<path class="st4" d="M117.63,64.16c0.01,0.26,0.01,0.51,0,0.77c0-6.2-2.92-11.78-7.53-15.36c-3-2.33-6.71-3.81-10.79-4.04
			c-1.74-0.1-3.43,0.03-5.04,0.36c-4.61,0.95-8.66,3.53-11.46,7.14c-2.06,2.64-3.44,5.82-3.9,9.33c-0.01,0.04-0.01,0.07-0.01,0.1
			c-0.01,0.07-0.02,0.14-0.03,0.22c-0.01,0.02-0.01,0.05-0.01,0.08v0.02c-0.01,0.02-0.01,0.03-0.01,0.05c0,0.01-0.01,0.02-0.01,0.04
			c-0.01,0.05-0.01,0.11-0.02,0.16c-0.01,0.06-0.02,0.12-0.02,0.18c0,0.04-0.01,0.07-0.01,0.11c-0.01,0.08-0.02,0.17-0.02,0.25
			s-0.01,0.16-0.02,0.25c0,0.02,0,0.03,0,0.05c-0.01,0.16-0.01,0.31-0.02,0.47c0,0.04,0,0.09-0.01,0.13c0,0.01,0,0.01,0,0.01
			c0,0.02,0,0.05,0,0.07c0,0.01,0,0.02,0,0.04c0,0.06,0,0.12,0,0.17c0,0.02,0,0.04,0,0.05v0.01c0,0.07,0,0.13,0.01,0.2
			c0,0.04,0,0.09,0,0.13c0,0.02,0,0.04,0,0.07c0.01,0.02,0.01,0.05,0.01,0.07c0,0.03,0.01,0.07,0.01,0.1c0,0.05,0.01,0.09,0.01,0.14
			c0.01,0.13,0.02,0.27,0.02,0.41c0.01,0.04,0.01,0.07,0.01,0.11c0.02,0.21,0.04,0.42,0.07,0.63c0.01,0.04,0.01,0.08,0.02,0.12
			c0.01,0.05,0.01,0.1,0.02,0.15c0,0.01,0,0.02,0.01,0.04c0.01,0.05,0.01,0.1,0.02,0.16c0.01,0.04,0.01,0.08,0.02,0.11
			c0.04,0.23,0.08,0.46,0.14,0.69c0.04,0.15,0.07,0.31,0.11,0.46c0.01,0.04,0.02,0.07,0.03,0.11c0.05,0.19,0.1,0.37,0.17,0.56
			c0.03,0.11,0.07,0.22,0.11,0.33c0.03,0.1,0.07,0.21,0.11,0.31c0,0.02,0.01,0.04,0.02,0.05c0.08,0.22,0.16,0.43,0.26,0.64
			c0.15,0.36,0.32,0.71,0.51,1.05c0.05,0.11,0.11,0.22,0.18,0.33c0.08,0.14,0.16,0.28,0.25,0.42c0.11,0.19,0.24,0.38,0.36,0.56
			c0.11,0.17,0.23,0.33,0.35,0.49c0.02,0.03,0.04,0.06,0.06,0.08c0.03,0.04,0.06,0.08,0.09,0.12c0.07,0.09,0.14,0.18,0.22,0.27
			c0.04,0.05,0.07,0.1,0.11,0.14c0.06,0.08,0.12,0.14,0.17,0.22c0.03,0.04,0.06,0.07,0.09,0.1s0.05,0.07,0.09,0.1
			c0.19,0.22,0.39,0.43,0.59,0.63c0.21,0.21,0.43,0.41,0.65,0.61c0.03,0.04,0.07,0.06,0.1,0.09c0.3,0.25,0.6,0.5,0.92,0.73
			c0.07,0.05,0.14,0.11,0.22,0.17c0.04,0.02,0.08,0.05,0.12,0.08c0.14,0.1,0.29,0.19,0.44,0.29c0.05,0.04,0.1,0.07,0.16,0.1
			c0.08,0.05,0.17,0.1,0.25,0.16c0.02,0.01,0.05,0.03,0.07,0.04c0.03,0.01,0.06,0.04,0.1,0.05c0.04,0.02,0.09,0.05,0.14,0.07
			c0.08,0.05,0.18,0.1,0.27,0.15c0.07,0.04,0.13,0.08,0.2,0.11c0.12,0.05,0.24,0.11,0.36,0.17c0.06,0.03,0.13,0.06,0.19,0.08
			c0.02,0.01,0.04,0.02,0.07,0.03c0.08,0.03,0.16,0.07,0.24,0.1c0.04,0.02,0.07,0.03,0.11,0.04c0.08,0.04,0.17,0.07,0.25,0.11
			c0.02,0.01,0.05,0.02,0.08,0.03c0.05,0.02,0.11,0.04,0.17,0.06c0.09,0.04,0.18,0.07,0.27,0.1c0.02,0.01,0.05,0.02,0.07,0.02
			c0.04,0.01,0.09,0.03,0.13,0.05c-3.32-0.99-6.2-2.8-8.46-5.18c-3.15-3.32-5.09-7.7-5.34-12.4c-0.08-1.65,0.04-3.35,0.4-5.04
			c0.85-4,2.86-7.44,5.62-10.07c4.38-4.16,10.6-6.22,16.95-5.04c0.08,0.01,0.16,0.02,0.25,0.04c0.08,0.02,0.16,0.04,0.25,0.05
			c0.12,0.03,0.25,0.05,0.37,0.08c0.04,0.01,0.08,0.02,0.12,0.03c0.35,0.08,0.7,0.17,1.04,0.27s0.69,0.2,1.02,0.31
			c0.32,0.1,0.63,0.22,0.94,0.33c0.07,0.02,0.13,0.04,0.19,0.07c0.28,0.11,0.55,0.22,0.82,0.33c0.02,0.01,0.04,0.01,0.06,0.02
			c0.31,0.13,0.62,0.27,0.92,0.42c0.27,0.13,0.53,0.26,0.79,0.4c0.07,0.03,0.13,0.06,0.19,0.1c0.27,0.14,0.54,0.29,0.81,0.44
			c0.01,0.01,0.03,0.02,0.05,0.03c0.27,0.16,0.54,0.33,0.81,0.49c0.19,0.13,0.38,0.25,0.57,0.38c0.16,0.1,0.31,0.21,0.46,0.32
			c0.17,0.12,0.34,0.25,0.51,0.37c0.13,0.1,0.25,0.19,0.38,0.29c0.48,0.37,0.93,0.77,1.38,1.17c0.25,0.22,0.49,0.46,0.73,0.69
			c0.16,0.16,0.33,0.33,0.49,0.51c0.1,0.1,0.19,0.19,0.28,0.3c0.47,0.51,0.91,1.03,1.33,1.57c0.15,0.19,0.3,0.39,0.45,0.59
			c0.02,0.04,0.05,0.08,0.08,0.11c0.19,0.27,0.37,0.53,0.55,0.8c0.01,0.01,0.01,0.02,0.01,0.02c0.17,0.26,0.34,0.53,0.51,0.8
			c0.03,0.04,0.05,0.08,0.08,0.13c0.16,0.27,0.31,0.53,0.46,0.8c0.16,0.3,0.32,0.6,0.47,0.9c0.15,0.3,0.3,0.6,0.43,0.91
			c0.13,0.3,0.26,0.61,0.39,0.92c0.01,0.01,0.01,0.01,0.01,0.02c0.13,0.31,0.24,0.63,0.36,0.95c0.11,0.31,0.21,0.63,0.31,0.94
			c0.01,0.01,0.01,0.03,0.01,0.04c0.09,0.3,0.18,0.61,0.26,0.92c0.04,0.13,0.07,0.26,0.1,0.39c0.05,0.22,0.1,0.43,0.15,0.65
			c0.05,0.23,0.1,0.45,0.13,0.68c0.05,0.28,0.1,0.57,0.14,0.85c0.01,0.05,0.02,0.1,0.02,0.14c0.02,0.16,0.05,0.32,0.07,0.48
			c0.02,0.2,0.05,0.41,0.07,0.61c0.02,0.19,0.04,0.39,0.05,0.58c0.02,0.2,0.03,0.39,0.04,0.59c0.01,0.16,0.02,0.33,0.02,0.49
			C117.63,64.01,117.63,64.08,117.63,64.16z"/>
	</g>
	<g>
		<g>
			<path class="st5" d="M172.35,46.71h-3.78V45.9h3.78V46.71z"/>
			<path class="st5" d="M168.58,48.93h3.78v1.01c-0.85,0.47-2.38,1.34-2.79,1.52v0.01c0.39-0.04,1.05-0.04,1.67-0.04h1.12v0.74
				h-3.78v-0.96c0.74-0.41,2.5-1.37,2.93-1.56v-0.01c-0.33,0.03-1.11,0.04-1.78,0.04h-1.15V48.93z"/>
			<path class="st5" d="M172.35,54.39v2.64h-0.67v-1.84h-0.93v1.72h-0.67v-1.72h-1.51v-0.8H172.35z"/>
			<path class="st5" d="M170.48,62.4c-1.05,0-1.96-0.63-1.96-1.86c0-1.19,0.86-1.81,1.94-1.81c1.1,0,1.94,0.69,1.94,1.86
				C172.41,61.7,171.64,62.4,170.48,62.4z M170.48,59.58c-0.74,0-1.29,0.32-1.29,0.99c0,0.73,0.61,0.98,1.28,0.98
				c0.71,0,1.28-0.29,1.28-1C171.75,59.88,171.22,59.58,170.48,59.58z"/>
			<path class="st5" d="M171.69,65.19v-1.15h0.67v3.11h-0.67v-1.14h-3.11v-0.82H171.69z"/>
			<path class="st5" d="M170.21,71.57v-1.81h-0.96v1.99l-0.67-0.1v-2.69h3.78v2.68h-0.67v-1.89h-0.81v1.81H170.21z"/>
			<path class="st5" d="M169.74,76.89c-0.7-0.15-1.22-0.68-1.22-1.63c0-1.2,0.85-1.76,1.92-1.76c1.04,0,1.96,0.58,1.96,1.8
				c0,1.01-0.59,1.49-1.22,1.58v-0.82c0.29-0.08,0.58-0.28,0.58-0.79c0-0.67-0.61-0.93-1.29-0.93c-0.64,0-1.31,0.23-1.31,0.96
				c0,0.53,0.36,0.7,0.58,0.77V76.89z"/>
			<path class="st5" d="M172.35,78.9v0.82h-1.47v1.52h1.47v0.82h-3.78v-0.82h1.63v-1.52h-1.63V78.9H172.35z"/>
		</g>
	</g>
	<g>
		<g>
			<path class="st6" d="M24.87,98.29v-1.6c0-0.04-0.01-0.09-0.03-0.12l-1.54-2.65h0.66c0.4,0.71,1.03,1.84,1.23,2.22
				c0.19-0.38,0.84-1.52,1.25-2.22h0.62l-1.59,2.66c-0.01,0.03-0.03,0.05-0.03,0.11v1.6H24.87z"/>
			<path class="st6" d="M32.69,96.07c0,1.2-0.67,2.27-2.05,2.27c-1.29,0-2.01-1-2.01-2.25c0-1.25,0.73-2.25,2.06-2.25
				C31.92,93.85,32.69,94.77,32.69,96.07z M29.24,96.08c0,0.95,0.48,1.77,1.42,1.77c1.02,0,1.42-0.84,1.42-1.77
				c0-0.94-0.46-1.74-1.42-1.74C29.67,94.34,29.24,95.15,29.24,96.08z"/>
			<path class="st6" d="M35.4,93.91v2.63c0,1.03,0.57,1.31,1.13,1.31c0.66,0,1.12-0.3,1.12-1.31v-2.63h0.58v2.6
				c0,1.42-0.79,1.83-1.71,1.83c-0.91,0-1.7-0.44-1.7-1.79v-2.64H35.4z"/>
			<path class="st6" d="M41.18,96.36v1.93H40.6v-4.37h1.71c0.9,0,1.38,0.49,1.38,1.17c0,0.57-0.33,0.91-0.75,1.03
				c0.36,0.1,0.67,0.36,0.67,1.12v0.19c0,0.3-0.01,0.68,0.06,0.87h-0.56c-0.08-0.19-0.07-0.53-0.07-0.94v-0.09
				c0-0.62-0.18-0.89-0.96-0.89H41.18z M41.18,95.87h0.95c0.67,0,0.96-0.25,0.96-0.74c0-0.46-0.3-0.73-0.9-0.73h-1.02V95.87z"/>
			<path class="st6" d="M49.33,93.91v4.37h-0.58v-4.37H49.33z"/>
			<path class="st6" d="M51.73,93.91h1.56c1.23,0,2.06,0.84,2.06,2.14c0,1.29-0.81,2.23-2.08,2.23h-1.54V93.91z M52.31,97.79h0.92
				c1.03,0,1.52-0.74,1.52-1.73c0-0.86-0.45-1.66-1.52-1.66h-0.92V97.79z"/>
			<path class="st6" d="M60.27,96.24h-2.18v1.55h2.39l-0.07,0.5h-2.88v-4.37h2.85v0.5h-2.28v1.34h2.18V96.24z"/>
			<path class="st6" d="M62.54,98.29v-4.37h0.77c0.63,1.02,1.99,3.2,2.24,3.67h0.01c-0.04-0.56-0.04-1.25-0.04-1.97v-1.71h0.55v4.37
				h-0.72c-0.58-0.95-2-3.29-2.28-3.78h-0.01c0.03,0.5,0.03,1.24,0.03,2.03v1.75H62.54z"/>
			<path class="st6" d="M69.36,94.41h-1.41v-0.5h3.41v0.5h-1.42v3.88h-0.58V94.41z"/>
			<path class="st6" d="M73.82,93.91v4.37h-0.58v-4.37H73.82z"/>
			<path class="st6" d="M77.11,94.41H75.7v-0.5h3.41v0.5H77.7v3.88h-0.58V94.41z"/>
			<path class="st6" d="M81.96,98.29v-1.6c0-0.04-0.01-0.09-0.03-0.12l-1.54-2.65h0.66c0.4,0.71,1.03,1.84,1.23,2.22
				c0.19-0.38,0.84-1.52,1.25-2.22h0.62l-1.59,2.66c-0.01,0.03-0.03,0.05-0.03,0.11v1.6H81.96z"/>
			<path class="st6" d="M92.62,96.07c0,1.2-0.67,2.27-2.05,2.27c-1.29,0-2.01-1-2.01-2.25c0-1.25,0.73-2.25,2.06-2.25
				C91.85,93.85,92.62,94.77,92.62,96.07z M89.17,96.08c0,0.95,0.48,1.77,1.42,1.77c1.02,0,1.42-0.84,1.42-1.77
				c0-0.94-0.46-1.74-1.42-1.74C89.61,94.34,89.17,95.15,89.17,96.08z"/>
			<path class="st6" d="M95.34,93.91v2.63c0,1.03,0.57,1.31,1.13,1.31c0.66,0,1.12-0.3,1.12-1.31v-2.63h0.58v2.6
				c0,1.42-0.79,1.83-1.71,1.83c-0.91,0-1.7-0.44-1.7-1.79v-2.64H95.34z"/>
			<path class="st6" d="M101.11,96.36v1.93h-0.58v-4.37h1.71c0.9,0,1.38,0.49,1.38,1.17c0,0.57-0.33,0.91-0.75,1.03
				c0.36,0.1,0.67,0.36,0.67,1.12v0.19c0,0.3-0.01,0.68,0.06,0.87h-0.56c-0.08-0.19-0.07-0.53-0.07-0.94v-0.09
				c0-0.62-0.18-0.89-0.96-0.89H101.11z M101.11,95.87h0.95c0.67,0,0.96-0.25,0.96-0.74c0-0.46-0.3-0.73-0.9-0.73h-1.02V95.87z"/>
			<path class="st6" d="M109.26,96.36v1.93h-0.58v-4.37h1.71c0.9,0,1.38,0.49,1.38,1.17c0,0.57-0.33,0.91-0.75,1.03
				c0.36,0.1,0.67,0.36,0.67,1.12v0.19c0,0.3-0.01,0.68,0.06,0.87h-0.56c-0.08-0.19-0.07-0.53-0.07-0.94v-0.09
				c0-0.62-0.18-0.89-0.96-0.89H109.26z M109.26,95.87h0.95c0.67,0,0.96-0.25,0.96-0.74c0-0.46-0.3-0.73-0.9-0.73h-1.02V95.87z"/>
			<path class="st6" d="M116.72,96.24h-2.18v1.55h2.39l-0.08,0.5h-2.88v-4.37h2.85v0.5h-2.28v1.34h2.18V96.24z"/>
			<path class="st6" d="M119.26,97.07c0.12,0.52,0.48,0.81,1.11,0.81c0.68,0,0.95-0.32,0.95-0.73c0-0.44-0.22-0.68-1.09-0.9
				c-1.03-0.25-1.39-0.6-1.39-1.22c0-0.65,0.48-1.18,1.46-1.18c1.04,0,1.47,0.6,1.53,1.18h-0.59c-0.08-0.39-0.32-0.71-0.96-0.71
				c-0.53,0-0.83,0.24-0.83,0.66c0,0.41,0.25,0.57,1.01,0.76c1.25,0.3,1.47,0.79,1.47,1.35c0,0.71-0.52,1.26-1.59,1.26
				c-1.1,0-1.57-0.6-1.66-1.27H119.26z"/>
			<path class="st6" d="M124.06,93.91h1.66c0.85,0,1.43,0.48,1.43,1.27c0,0.85-0.61,1.3-1.47,1.3h-1.04v1.8h-0.58V93.91z M124.64,96
				h1.01c0.6,0,0.9-0.29,0.9-0.8c0-0.53-0.36-0.8-0.88-0.8h-1.04V96z"/>
			<path class="st6" d="M133.08,96.07c0,1.2-0.67,2.27-2.05,2.27c-1.29,0-2.01-1-2.01-2.25c0-1.25,0.73-2.25,2.06-2.25
				C132.31,93.85,133.08,94.77,133.08,96.07z M129.63,96.08c0,0.95,0.48,1.77,1.42,1.77c1.02,0,1.42-0.84,1.42-1.77
				c0-0.94-0.46-1.74-1.42-1.74C130.07,94.34,129.63,95.15,129.63,96.08z"/>
			<path class="st6" d="M135.25,98.29v-4.37h0.77c0.63,1.02,1.99,3.2,2.24,3.67h0.01c-0.04-0.56-0.04-1.25-0.04-1.97v-1.71h0.55
				v4.37h-0.72c-0.58-0.95-2-3.29-2.28-3.78h-0.01c0.03,0.5,0.03,1.24,0.03,2.03v1.75H135.25z"/>
			<path class="st6" d="M141.46,97.07c0.12,0.52,0.48,0.81,1.11,0.81c0.68,0,0.95-0.32,0.95-0.73c0-0.44-0.22-0.68-1.09-0.9
				c-1.03-0.25-1.39-0.6-1.39-1.22c0-0.65,0.48-1.18,1.46-1.18c1.04,0,1.47,0.6,1.53,1.18h-0.59c-0.08-0.39-0.32-0.71-0.96-0.71
				c-0.53,0-0.83,0.24-0.83,0.66c0,0.41,0.25,0.57,1.01,0.76c1.25,0.3,1.47,0.79,1.47,1.35c0,0.71-0.52,1.26-1.59,1.26
				c-1.1,0-1.57-0.6-1.66-1.27H141.46z"/>
			<path class="st6" d="M146.83,93.91v4.37h-0.58v-4.37H146.83z"/>
			<path class="st6" d="M149.24,93.91h1.68c0.92,0,1.35,0.49,1.35,1.09c0,0.51-0.29,0.84-0.63,0.95c0.3,0.1,0.77,0.4,0.77,1.05
				c0,0.82-0.63,1.28-1.46,1.28h-1.72V93.91z M150.81,95.73c0.63,0,0.88-0.25,0.88-0.68c0-0.39-0.28-0.66-0.79-0.66h-1.09v1.34
				H150.81z M149.81,97.81h1.08c0.55,0,0.93-0.26,0.93-0.8c0-0.47-0.3-0.79-1.04-0.79h-0.97V97.81z"/>
			<path class="st6" d="M155.14,93.91v4.37h-0.58v-4.37H155.14z"/>
			<path class="st6" d="M157.55,93.91h0.58v3.88h2.28l-0.08,0.5h-2.78V93.91z"/>
			<path class="st6" d="M162.91,93.91v4.37h-0.58v-4.37H162.91z"/>
			<path class="st6" d="M166.21,94.41h-1.41v-0.5h3.41v0.5h-1.41v3.88h-0.58V94.41z"/>
			<path class="st6" d="M171.05,98.29v-1.6c0-0.04-0.01-0.09-0.03-0.12l-1.54-2.65h0.66c0.4,0.71,1.03,1.84,1.23,2.22
				c0.19-0.38,0.84-1.52,1.26-2.22h0.62l-1.59,2.66c-0.01,0.03-0.03,0.05-0.03,0.11v1.6H171.05z"/>
		</g>
	</g>
</g>
<rect class="st7" width="198.76" height="139.66"/>
</svg>
